# This file uses centimeters as units for non-parametric coordinates.

mtllib ConveyorRail.mtl
g default
v 1.000000 0.027730 0.290004
v 1.000000 0.027730 0.325084
v -1.000000 0.027730 0.325084
v -1.000000 0.027730 0.290004
v -1.000000 0.093887 0.290004
v 1.000000 0.093887 0.290004
v -1.000000 0.093887 0.305692
v 1.000000 0.093887 0.305692
v 1.000000 0.172270 0.325084
v -1.000000 0.172270 0.325084
v -1.000000 0.172270 0.305692
v 1.000000 0.172270 0.305692
v 1.000000 0.027730 -0.290004
v 1.000000 0.027730 -0.325084
v 1.000000 0.172270 -0.325084
v 1.000000 0.172270 -0.305692
v 1.000000 0.093887 -0.305692
v 1.000000 0.093887 -0.290004
v -1.000000 0.172270 -0.325084
v -1.000000 0.172270 -0.305692
v -1.000000 0.093887 -0.305692
v -1.000000 0.093887 -0.290004
v -1.000000 0.027730 -0.325084
v -1.000000 0.027730 -0.290004
vt 0.625000 0.986511
vt 0.625000 1.000000
vt 0.375000 1.000000
vt 0.375000 0.986511
vt 0.625000 0.056557
vt 0.375000 0.056557
vt 0.375000 0.201243
vt 0.625000 0.201243
vt 0.375000 0.993585
vt 0.375000 1.000000
vt 0.625000 1.000000
vt 0.625000 0.993585
vt 0.375000 0.000000
vt 0.625000 0.000000
vt 0.625000 0.250000
vt 0.375000 0.250000
vt 0.375000 0.171424
vt 0.625000 0.171424
vt 0.625000 0.000000
vt 0.375000 0.000000
vt 0.625000 0.257457
vt 0.375000 0.257457
vt 0.861511 0.000000
vt 0.875000 0.000000
vt 0.875000 0.250000
vt 0.867543 0.250000
vt 0.867543 0.114427
vt 0.861511 0.114427
vt 0.638489 0.000000
vt 0.638489 0.114427
vt 0.632457 0.114427
vt 0.632457 0.250000
vt 0.625000 0.492543
vt 0.625000 0.500000
vt 0.375000 0.500000
vt 0.375000 0.492543
vt 0.625000 0.578576
vt 0.375000 0.578576
vt 0.375000 0.750000
vt 0.625000 0.750000
vt 0.375000 0.756415
vt 0.625000 0.756415
vt 0.625000 0.750000
vt 0.375000 0.750000
vt 0.625000 0.548757
vt 0.375000 0.548757
vt 0.375000 0.693443
vt 0.625000 0.693443
vt 0.625000 0.763489
vt 0.375000 0.763489
vt 0.361511 0.000000
vt 0.367543 0.250000
vt 0.367543 0.114427
vt 0.361511 0.114427
vt 0.125000 0.000000
vt 0.138489 0.000000
vt 0.138489 0.114427
vt 0.132457 0.114427
vt 0.132457 0.250000
vt 0.125000 0.250000
vn 0.000000 -1.000000 0.000000
vn 0.000000 -1.000000 0.000000
vn 0.000000 -1.000000 0.000000
vn 0.000000 -1.000000 0.000000
vn 0.000000 0.000000 -1.000000
vn 0.000000 0.000000 -1.000000
vn 0.000000 0.000000 -1.000000
vn 0.000000 0.000000 -1.000000
vn 0.000000 1.000000 0.000000
vn 0.000000 1.000000 0.000000
vn 0.000000 1.000000 0.000000
vn 0.000000 1.000000 0.000000
vn 0.000000 0.000000 1.000000
vn 0.000000 0.000000 1.000000
vn 0.000000 0.000000 1.000000
vn 0.000000 0.000000 1.000000
vn 0.000000 0.000000 -1.000000
vn 0.000000 0.000000 -1.000000
vn 0.000000 0.000000 -1.000000
vn 0.000000 0.000000 -1.000000
vn 0.000000 1.000000 0.000000
vn 0.000000 1.000000 0.000000
vn 0.000000 1.000000 0.000000
vn 0.000000 1.000000 0.000000
vn 1.000000 0.000000 0.000000
vn 1.000000 0.000000 0.000000
vn 1.000000 0.000000 0.000000
vn 1.000000 0.000000 0.000000
vn 1.000000 0.000000 0.000000
vn 1.000000 0.000000 0.000000
vn 1.000000 0.000000 0.000000
vn 1.000000 0.000000 0.000000
vn 1.000000 0.000000 0.000000
vn 1.000000 0.000000 0.000000
vn 1.000000 0.000000 0.000000
vn 1.000000 0.000000 0.000000
vn 0.000000 1.000000 0.000000
vn 0.000000 1.000000 0.000000
vn 0.000000 1.000000 0.000000
vn 0.000000 1.000000 0.000000
vn 0.000000 0.000000 1.000000
vn 0.000000 0.000000 1.000000
vn 0.000000 0.000000 1.000000
vn 0.000000 0.000000 1.000000
vn 0.000000 1.000000 0.000000
vn 0.000000 1.000000 0.000000
vn 0.000000 1.000000 0.000000
vn 0.000000 1.000000 0.000000
vn 0.000000 0.000000 -1.000000
vn 0.000000 0.000000 -1.000000
vn 0.000000 0.000000 -1.000000
vn 0.000000 0.000000 -1.000000
vn 0.000000 0.000000 1.000000
vn 0.000000 0.000000 1.000000
vn 0.000000 0.000000 1.000000
vn 0.000000 0.000000 1.000000
vn 0.000000 -1.000000 0.000000
vn 0.000000 -1.000000 0.000000
vn 0.000000 -1.000000 0.000000
vn 0.000000 -1.000000 0.000000
vn -1.000000 0.000000 0.000000
vn -1.000000 0.000000 0.000000
vn -1.000000 0.000000 0.000000
vn -1.000000 0.000000 0.000000
vn -1.000000 0.000000 0.000000
vn -1.000000 0.000000 0.000000
vn -1.000000 0.000000 0.000000
vn -1.000000 0.000000 0.000000
vn -1.000000 0.000000 0.000000
vn -1.000000 0.000000 0.000000
vn -1.000000 0.000000 0.000000
vn -1.000000 0.000000 0.000000
s off
g pCube45 group6
usemtl initialShadingGroup
f 1/1/1 2/2/2 3/3/3 4/4/4
f 1/5/5 4/6/6 5/7/7 6/8/8
f 5/9/9 7/10/10 8/11/11 6/12/12
f 3/13/13 2/14/14 9/15/15 10/16/16
f 11/17/17 12/18/18 8/19/19 7/20/20
f 10/16/21 9/15/22 12/21/23 11/22/24
f 13/23/25 14/24/26 15/25/27 16/26/28 17/27/29 18/28/30
f 2/14/31 1/29/32 6/30/33 8/31/34 12/32/35 9/15/36
f 16/33/37 15/34/38 19/35/39 20/36/40
f 16/37/41 20/38/42 21/39/43 17/40/44
f 21/39/45 22/41/46 18/42/47 17/40/48
f 19/35/49 15/34/50 14/43/51 23/44/52
f 18/45/53 22/46/54 24/47/55 13/48/56
f 23/44/57 14/43/58 13/49/59 24/50/60
f 4/51/61 3/13/62 10/16/63 11/52/64 7/53/65 5/54/66
f 23/55/67 24/56/68 22/57/69 21/58/70 20/59/71 19/60/72
