# This file uses centimeters as units for non-parametric coordinates.

mtllib PlasticPlate.mtl
g default
v 0.951057 0.146075 -0.309017
v 0.809018 0.146075 -0.587786
v 0.587786 0.146075 -0.809017
v 0.309017 0.146075 -0.951057
v 0.000000 0.146075 -1.000000
v -0.309017 0.146075 -0.951057
v -0.587785 0.146075 -0.809017
v -0.809017 0.146075 -0.587785
v -0.951057 0.146075 -0.309017
v -1.000000 0.146075 0.000000
v -0.951057 0.146075 0.309017
v -0.809017 0.146075 0.587785
v -0.587785 0.146075 0.809017
v -0.309017 0.146075 0.951057
v -0.000000 0.146075 1.000000
v 0.309017 0.146075 0.951057
v 0.587785 0.146075 0.809017
v 0.809017 0.146075 0.587785
v 0.951057 0.146075 0.309017
v 1.000000 0.146075 0.000000
v 0.951057 0.166783 -0.309017
v 0.809018 0.166783 -0.587786
v 0.587786 0.166783 -0.809017
v 0.309017 0.166783 -0.951057
v 0.000000 0.166783 -1.000000
v -0.309017 0.166783 -0.951057
v -0.587785 0.166783 -0.809017
v -0.809017 0.166783 -0.587785
v -0.951057 0.166783 -0.309017
v -1.000000 0.166783 0.000000
v -0.951057 0.166783 0.309017
v -0.809017 0.166783 0.587785
v -0.587785 0.166783 0.809017
v -0.309017 0.166783 0.951057
v -0.000000 0.166783 1.000000
v 0.309017 0.166783 0.951057
v 0.587785 0.166783 0.809017
v 0.809017 0.166783 0.587785
v 0.951057 0.166783 0.309017
v 1.000000 0.166783 0.000000
v -0.000000 0.000000 0.000000
v 0.000000 0.082012 0.000000
v 0.574086 0.000000 -0.186532
v 0.603629 0.000000 0.000000
v 0.574086 0.000000 0.186532
v 0.488346 0.000000 0.354804
v 0.354804 0.000000 0.488346
v 0.186532 0.000000 0.574086
v 0.000000 0.000000 0.603629
v -0.186532 0.000000 0.574086
v -0.354805 0.000000 0.488346
v -0.488346 0.000000 0.354805
v -0.574086 0.000000 0.186532
v -0.603629 0.000000 0.000000
v -0.574086 0.000000 -0.186532
v -0.488346 0.000000 -0.354805
v -0.354805 0.000000 -0.488346
v -0.186532 0.000000 -0.574086
v 0.000000 0.000000 -0.603629
v 0.186532 0.000000 -0.574086
v 0.354805 0.000000 -0.488347
v 0.488347 0.000000 -0.354805
v 0.921392 0.177039 -0.299378
v 0.968808 0.177039 0.000000
v 0.921391 0.177039 0.299378
v 0.783782 0.177039 0.569451
v 0.569451 0.177039 0.783782
v 0.299378 0.177039 0.921392
v -0.000000 0.177039 0.968808
v -0.299378 0.177039 0.921392
v -0.569451 0.177039 0.783782
v -0.783782 0.177039 0.569451
v -0.921392 0.177039 0.299378
v -0.968808 0.177039 0.000000
v -0.921392 0.177039 -0.299378
v -0.783782 0.177039 -0.569451
v -0.569451 0.177039 -0.783782
v -0.299378 0.177039 -0.921392
v 0.000000 0.177039 -0.968808
v 0.299378 0.177039 -0.921392
v 0.569451 0.177039 -0.783782
v 0.783782 0.177039 -0.569451
v 0.816069 0.124758 -0.265157
v 0.694189 0.124758 -0.504358
v 0.504358 0.124758 -0.694189
v 0.265157 0.124758 -0.816069
v 0.000000 0.124758 -0.858065
v -0.265157 0.124758 -0.816069
v -0.504358 0.124758 -0.694189
v -0.694189 0.124758 -0.504358
v -0.816068 0.124758 -0.265157
v -0.858065 0.124758 0.000000
v -0.816068 0.124758 0.265157
v -0.694189 0.124758 0.504358
v -0.504358 0.124758 0.694189
v -0.265157 0.124758 0.816068
v 0.000000 0.124758 0.858065
v 0.265157 0.124758 0.816068
v 0.504358 0.124758 0.694189
v 0.694189 0.124758 0.504358
v 0.816068 0.124758 0.265157
v 0.858065 0.124758 0.000000
v 0.408034 0.096129 -0.132578
v 0.347095 0.096129 -0.252179
v 0.252179 0.096129 -0.347095
v 0.132578 0.096129 -0.408034
v 0.000000 0.096129 -0.429032
v -0.132578 0.096129 -0.408034
v -0.252179 0.096129 -0.347094
v -0.347094 0.096129 -0.252179
v -0.408034 0.096129 -0.132578
v -0.429032 0.096129 0.000000
v -0.408034 0.096129 0.132578
v -0.347094 0.096129 0.252179
v -0.252179 0.096129 0.347094
v -0.132578 0.096129 0.408034
v 0.000000 0.096129 0.429032
v 0.132578 0.096129 0.408034
v 0.252179 0.096129 0.347094
v 0.347094 0.096129 0.252179
v 0.408034 0.096129 0.132578
v 0.429032 0.096129 0.000000
v 0.883563 0.191949 -0.287087
v 0.751603 0.191949 -0.546072
v 0.546072 0.191949 -0.751603
v 0.287087 0.191949 -0.883563
v 0.000000 0.191949 -0.929033
v -0.287087 0.191949 -0.883563
v -0.546072 0.191949 -0.751603
v -0.751603 0.191949 -0.546072
v -0.883562 0.191949 -0.287087
v -0.929033 0.191949 0.000000
v -0.883562 0.191949 0.287087
v -0.751603 0.191949 0.546072
v -0.546072 0.191949 0.751603
v -0.287087 0.191949 0.883563
v -0.000000 0.191949 0.929032
v 0.287087 0.191949 0.883562
v 0.546071 0.191949 0.751603
v 0.751603 0.191949 0.546072
v 0.883562 0.191949 0.287087
v 0.929032 0.191949 0.000000
vt 0.648603 0.107966
vt 0.626409 0.064408
vt 0.591842 0.029841
vt 0.548284 0.007647
vt 0.500000 -0.000000
vt 0.451716 0.007647
vt 0.408159 0.029841
vt 0.373591 0.064409
vt 0.351397 0.107966
vt 0.343750 0.156250
vt 0.351397 0.204534
vt 0.373591 0.248091
vt 0.408159 0.282659
vt 0.451716 0.304853
vt 0.500000 0.312500
vt 0.548284 0.304853
vt 0.591841 0.282659
vt 0.626409 0.248091
vt 0.648603 0.204534
vt 0.656250 0.156250
vt 0.375000 0.312500
vt 0.387500 0.312500
vt 0.400000 0.312500
vt 0.412500 0.312500
vt 0.425000 0.312500
vt 0.437500 0.312500
vt 0.450000 0.312500
vt 0.462500 0.312500
vt 0.475000 0.312500
vt 0.487500 0.312500
vt 0.500000 0.312500
vt 0.512500 0.312500
vt 0.525000 0.312500
vt 0.537500 0.312500
vt 0.550000 0.312500
vt 0.562500 0.312500
vt 0.575000 0.312500
vt 0.587500 0.312500
vt 0.600000 0.312500
vt 0.612500 0.312500
vt 0.625000 0.312500
vt 0.375000 0.688440
vt 0.387500 0.688440
vt 0.400000 0.688440
vt 0.412500 0.688440
vt 0.425000 0.688440
vt 0.437500 0.688440
vt 0.450000 0.688440
vt 0.462500 0.688440
vt 0.475000 0.688440
vt 0.487500 0.688440
vt 0.500000 0.688440
vt 0.512500 0.688440
vt 0.525000 0.688440
vt 0.537500 0.688440
vt 0.550000 0.688440
vt 0.562500 0.688440
vt 0.575000 0.688440
vt 0.587500 0.688440
vt 0.600000 0.688440
vt 0.612500 0.688440
vt 0.625000 0.688440
vt 0.648603 0.795466
vt 0.626409 0.751908
vt 0.591842 0.717341
vt 0.548284 0.695147
vt 0.500000 0.687500
vt 0.451716 0.695147
vt 0.408159 0.717341
vt 0.373591 0.751909
vt 0.351397 0.795466
vt 0.343750 0.843750
vt 0.351397 0.892034
vt 0.373591 0.935591
vt 0.408159 0.970159
vt 0.451716 0.992353
vt 0.500000 1.000000
vt 0.548284 0.992353
vt 0.591841 0.970159
vt 0.626409 0.935591
vt 0.648603 0.892034
vt 0.656250 0.843750
vt 0.500000 0.150000
vt 0.500000 0.837500
vt 0.549534 0.135989
vt 0.552083 0.152083
vt 0.549534 0.168178
vt 0.542136 0.182697
vt 0.530614 0.194220
vt 0.516095 0.201617
vt 0.500000 0.204167
vt 0.483905 0.201617
vt 0.469386 0.194220
vt 0.457864 0.182697
vt 0.450466 0.168178
vt 0.447917 0.152083
vt 0.450466 0.135989
vt 0.457864 0.121470
vt 0.469386 0.109947
vt 0.483905 0.102549
vt 0.500000 0.100000
vt 0.516095 0.102549
vt 0.530614 0.109947
vt 0.542136 0.121470
vt 0.599068 0.121977
vt 0.604167 0.154167
vt 0.599068 0.186356
vt 0.584273 0.215394
vt 0.561228 0.238439
vt 0.532189 0.253235
vt 0.500000 0.258333
vt 0.467811 0.253235
vt 0.438772 0.238439
vt 0.415727 0.215394
vt 0.400932 0.186356
vt 0.395833 0.154167
vt 0.400932 0.121977
vt 0.415727 0.092939
vt 0.438772 0.069894
vt 0.467811 0.055098
vt 0.500000 0.050000
vt 0.532189 0.055098
vt 0.561228 0.069894
vt 0.584273 0.092939
vt 0.599068 0.873856
vt 0.584273 0.902894
vt 0.561228 0.925939
vt 0.532189 0.940735
vt 0.500000 0.945833
vt 0.467811 0.940735
vt 0.438772 0.925939
vt 0.415727 0.902894
vt 0.400932 0.873856
vt 0.395833 0.841667
vt 0.400932 0.809477
vt 0.415727 0.780439
vt 0.438772 0.757394
vt 0.467811 0.742598
vt 0.500000 0.737500
vt 0.532189 0.742598
vt 0.561228 0.757394
vt 0.584273 0.780439
vt 0.599068 0.809477
vt 0.604167 0.841667
vt 0.549534 0.855678
vt 0.542136 0.870197
vt 0.530614 0.881720
vt 0.516095 0.889118
vt 0.500000 0.891667
vt 0.483905 0.889118
vt 0.469386 0.881720
vt 0.457864 0.870197
vt 0.450466 0.855678
vt 0.447917 0.839583
vt 0.450466 0.823489
vt 0.457864 0.808969
vt 0.469386 0.797447
vt 0.483905 0.790049
vt 0.500000 0.787500
vt 0.516095 0.790049
vt 0.530614 0.797447
vt 0.542136 0.808969
vt 0.549534 0.823489
vt 0.552083 0.839583
vt 0.623836 0.882945
vt 0.605341 0.919243
vt 0.576535 0.948049
vt 0.540237 0.966544
vt 0.500000 0.972917
vt 0.459763 0.966544
vt 0.423465 0.948049
vt 0.394659 0.919243
vt 0.376164 0.882945
vt 0.369792 0.842708
vt 0.376164 0.802472
vt 0.394659 0.766174
vt 0.423465 0.737368
vt 0.459763 0.718873
vt 0.500000 0.712500
vt 0.540237 0.718873
vt 0.576535 0.737368
vt 0.605341 0.766174
vt 0.623836 0.802472
vt 0.630208 0.842708
vn 0.951057 0.000000 -0.309016
vn 0.809017 0.000000 -0.587785
vn 0.809017 0.000000 -0.587785
vn 0.951057 0.000000 -0.309016
vn 0.587785 0.000000 -0.809017
vn 0.587785 0.000000 -0.809017
vn 0.309017 0.000000 -0.951057
vn 0.309017 0.000000 -0.951057
vn -0.000000 0.000000 -1.000000
vn -0.000000 0.000000 -1.000000
vn -0.309017 0.000000 -0.951056
vn -0.309017 0.000000 -0.951056
vn -0.587785 0.000000 -0.809017
vn -0.587785 0.000000 -0.809017
vn -0.809017 0.000000 -0.587785
vn -0.809017 0.000000 -0.587785
vn -0.951057 0.000000 -0.309017
vn -0.951057 0.000000 -0.309017
vn -1.000000 0.000000 0.000000
vn -1.000000 0.000000 0.000000
vn -0.951057 0.000000 0.309017
vn -0.951057 0.000000 0.309017
vn -0.809017 0.000000 0.587785
vn -0.809017 0.000000 0.587785
vn -0.587785 0.000000 0.809017
vn -0.587785 0.000000 0.809017
vn -0.309017 0.000000 0.951057
vn -0.309017 0.000000 0.951057
vn 0.000000 0.000000 1.000000
vn 0.000000 0.000000 1.000000
vn 0.309017 0.000000 0.951057
vn 0.309017 0.000000 0.951057
vn 0.587785 0.000000 0.809017
vn 0.587785 0.000000 0.809017
vn 0.809017 0.000000 0.587785
vn 0.809017 0.000000 0.587785
vn 0.951057 0.000000 0.309017
vn 0.951057 0.000000 0.309017
vn 1.000000 0.000000 0.000001
vn 1.000000 0.000000 0.000001
vn 0.131052 -0.974828 -0.180378
vn 0.180378 -0.974828 -0.131052
vn -0.000000 -1.000000 -0.000000
vn 0.068898 -0.974828 -0.212047
vn -0.000000 -0.974828 -0.222959
vn -0.068898 -0.974828 -0.212047
vn -0.131052 -0.974828 -0.180378
vn -0.180378 -0.974828 -0.131052
vn -0.212047 -0.974828 -0.068898
vn -0.222959 -0.974828 0.000000
vn -0.212047 -0.974828 0.068898
vn -0.180378 -0.974828 0.131052
vn -0.131052 -0.974828 0.180378
vn -0.068898 -0.974828 0.212047
vn 0.000000 -0.974828 0.222959
vn 0.068898 -0.974828 0.212047
vn 0.131052 -0.974828 0.180378
vn 0.180378 -0.974828 0.131052
vn 0.212047 -0.974828 0.068898
vn 0.222959 -0.974828 0.000000
vn 0.212047 -0.974828 -0.068898
vn 0.000000 1.000000 0.000000
vn -0.043665 0.998542 0.031725
vn -0.032087 0.998509 0.044164
vn -0.016679 0.998542 0.051332
vn 0.000000 0.998509 0.054590
vn 0.016679 0.998542 0.051332
vn 0.032087 0.998509 0.044164
vn 0.043665 0.998542 0.031725
vn 0.051918 0.998509 0.016869
vn 0.053973 0.998542 0.000000
vn 0.051918 0.998509 -0.016869
vn 0.043665 0.998542 -0.031725
vn 0.032087 0.998509 -0.044164
vn 0.016679 0.998542 -0.051332
vn -0.000000 0.998509 -0.054590
vn -0.016679 0.998542 -0.051332
vn -0.032087 0.998509 -0.044164
vn -0.043665 0.998542 -0.031725
vn -0.051918 0.998509 -0.016869
vn -0.053973 0.998542 -0.000000
vn -0.051918 0.998509 0.016869
vn 0.304615 -0.947319 -0.098975
vn 0.320292 -0.947319 0.000000
vn 0.304615 -0.947319 0.098976
vn 0.259121 -0.947319 0.188263
vn 0.188263 -0.947319 0.259121
vn 0.098975 -0.947319 0.304615
vn -0.000000 -0.947319 0.320292
vn -0.098975 -0.947319 0.304615
vn -0.188263 -0.947319 0.259121
vn -0.259121 -0.947319 0.188263
vn -0.304615 -0.947319 0.098976
vn -0.320292 -0.947319 -0.000000
vn -0.304615 -0.947319 -0.098975
vn -0.259121 -0.947319 -0.188263
vn -0.188263 -0.947319 -0.259121
vn -0.098975 -0.947319 -0.304615
vn -0.000000 -0.947319 -0.320291
vn 0.098975 -0.947319 -0.304615
vn 0.188263 -0.947319 -0.259121
vn 0.259121 -0.947319 -0.188263
vn -0.670027 -0.709697 0.217704
vn -0.704508 -0.709696 -0.000001
vn -0.670028 -0.709695 -0.217705
vn -0.569959 -0.709696 -0.414099
vn -0.414100 -0.709696 -0.569959
vn -0.217706 -0.709695 -0.670028
vn -0.000000 -0.709694 -0.704510
vn 0.217705 -0.709695 -0.670028
vn 0.414099 -0.709697 -0.569958
vn 0.569958 -0.709697 -0.414099
vn 0.670027 -0.709696 -0.217705
vn 0.704509 -0.709695 0.000000
vn 0.670027 -0.709696 0.217705
vn 0.569958 -0.709697 0.414099
vn 0.414099 -0.709697 0.569958
vn 0.217705 -0.709696 0.670027
vn 0.000000 -0.709696 0.704508
vn -0.217705 -0.709696 0.670027
vn -0.414098 -0.709698 0.569957
vn -0.569958 -0.709698 0.414099
vn -0.238593 0.968021 0.077523
vn -0.202959 0.968021 0.147458
vn -0.556214 0.726167 0.404113
vn -0.653869 0.726167 0.212454
vn -0.147459 0.968020 0.202959
vn -0.404114 0.726167 0.556214
vn -0.077523 0.968020 0.238593
vn -0.212455 0.726167 0.653869
vn 0.000000 0.968020 0.250871
vn 0.000000 0.726167 0.687519
vn 0.077523 0.968020 0.238593
vn 0.212455 0.726167 0.653869
vn 0.147458 0.968020 0.202959
vn 0.404113 0.726167 0.556214
vn 0.202959 0.968020 0.147458
vn 0.556214 0.726167 0.404113
vn 0.238593 0.968020 0.077523
vn 0.653869 0.726167 0.212455
vn 0.250871 0.968020 0.000000
vn 0.687519 0.726167 -0.000000
vn 0.238593 0.968020 -0.077524
vn 0.653869 0.726167 -0.212455
vn 0.202959 0.968020 -0.147458
vn 0.556214 0.726167 -0.404113
vn 0.147459 0.968020 -0.202959
vn 0.404114 0.726167 -0.556214
vn 0.077523 0.968020 -0.238593
vn 0.212455 0.726166 -0.653869
vn -0.000000 0.968020 -0.250872
vn -0.000000 0.726166 -0.687519
vn -0.077524 0.968020 -0.238593
vn -0.212455 0.726167 -0.653869
vn -0.147459 0.968020 -0.202959
vn -0.404113 0.726167 -0.556214
vn -0.202959 0.968021 -0.147458
vn -0.556214 0.726167 -0.404113
vn -0.238593 0.968020 -0.077524
vn -0.653869 0.726167 -0.212455
vn -0.250872 0.968020 -0.000000
vn -0.687519 0.726166 -0.000001
vn -0.063324 0.997781 0.020575
vn -0.053867 0.997781 0.039137
vn -0.039137 0.997781 0.053867
vn -0.020575 0.997781 0.063324
vn 0.000000 0.997781 0.066583
vn 0.020575 0.997781 0.063324
vn 0.039137 0.997781 0.053867
vn 0.053867 0.997781 0.039137
vn 0.063324 0.997781 0.020575
vn 0.066583 0.997781 0.000000
vn 0.063324 0.997781 -0.020575
vn 0.053867 0.997781 -0.039137
vn 0.039137 0.997781 -0.053867
vn 0.020575 0.997781 -0.063324
vn -0.000000 0.997781 -0.066583
vn -0.020575 0.997781 -0.063324
vn -0.039137 0.997781 -0.053867
vn -0.053867 0.997781 -0.039137
vn -0.063324 0.997781 -0.020575
vn -0.066583 0.997781 -0.000000
vn 0.317858 0.942497 -0.103278
vn 0.270386 0.942497 -0.196447
vn 0.196447 0.942497 -0.270386
vn 0.103278 0.942497 -0.317858
vn 0.000000 0.942497 -0.334216
vn -0.103278 0.942497 -0.317858
vn -0.196447 0.942497 -0.270386
vn -0.270386 0.942497 -0.196447
vn -0.317858 0.942497 -0.103278
vn -0.334216 0.942497 0.000000
vn -0.317858 0.942497 0.103278
vn -0.270386 0.942497 0.196447
vn -0.196447 0.942497 0.270386
vn -0.103278 0.942496 0.317858
vn 0.000000 0.942497 0.334216
vn 0.103278 0.942497 0.317858
vn 0.196447 0.942497 0.270386
vn 0.270386 0.942497 0.196447
vn 0.317858 0.942497 0.103278
vn 0.334216 0.942497 0.000000
s 1
g PlasticPlate
usemtl initialShadingGroup
f 1/21/1 2/22/2 22/43/3 21/42/4
f 2/22/2 3/23/5 23/44/6 22/43/3
f 3/23/5 4/24/7 24/45/8 23/44/6
f 4/24/7 5/25/9 25/46/10 24/45/8
f 5/25/9 6/26/11 26/47/12 25/46/10
f 6/26/11 7/27/13 27/48/14 26/47/12
f 7/27/13 8/28/15 28/49/16 27/48/14
f 8/28/15 9/29/17 29/50/18 28/49/16
f 9/29/17 10/30/19 30/51/20 29/50/18
f 10/30/19 11/31/21 31/52/22 30/51/20
f 11/31/21 12/32/23 32/53/24 31/52/22
f 12/32/23 13/33/25 33/54/26 32/53/24
f 13/33/25 14/34/27 34/55/28 33/54/26
f 14/34/27 15/35/29 35/56/30 34/55/28
f 15/35/29 16/36/31 36/57/32 35/56/30
f 16/36/31 17/37/33 37/58/34 36/57/32
f 17/37/33 18/38/35 38/59/36 37/58/34
f 18/38/35 19/39/37 39/60/38 38/59/36
f 19/39/37 20/40/39 40/61/40 39/60/38
f 20/40/39 1/41/1 21/62/4 40/61/40
s 2
f 61/103/41 62/104/42 41/83/43 60/102/44
f 59/101/45 60/102/44 41/83/43 58/100/46
f 57/99/47 58/100/46 41/83/43 56/98/48
f 55/97/49 56/98/48 41/83/43 54/96/50
f 53/95/51 54/96/50 41/83/43 52/94/52
f 51/93/53 52/94/52 41/83/43 50/92/54
f 49/91/55 50/92/54 41/83/43 48/90/56
f 47/89/57 48/90/56 41/83/43 46/88/58
f 45/87/59 46/88/58 41/83/43 44/86/60
f 43/85/61 44/86/60 41/83/43 62/104/42
s 3
f 42/84/62 104/146/63 105/147/64 106/148/65
f 42/84/62 106/148/65 107/149/66 108/150/67
f 42/84/62 108/150/67 109/151/68 110/152/69
f 42/84/62 110/152/69 111/153/70 112/154/71
f 42/84/62 112/154/71 113/155/72 114/156/73
f 42/84/62 114/156/73 115/157/74 116/158/75
f 42/84/62 116/158/75 117/159/76 118/160/77
f 42/84/62 118/160/77 119/161/78 120/162/79
f 42/84/62 120/162/79 121/163/80 122/164/81
f 42/84/62 122/164/81 103/145/82 104/146/63
s 2
f 63/105/83 64/106/84 44/86/60 43/85/61
f 64/106/84 65/107/85 45/87/59 44/86/60
f 65/107/85 66/108/86 46/88/58 45/87/59
f 66/108/86 67/109/87 47/89/57 46/88/58
f 67/109/87 68/110/88 48/90/56 47/89/57
f 68/110/88 69/111/89 49/91/55 48/90/56
f 69/111/89 70/112/90 50/92/54 49/91/55
f 70/112/90 71/113/91 51/93/53 50/92/54
f 71/113/91 72/114/92 52/94/52 51/93/53
f 72/114/92 73/115/93 53/95/51 52/94/52
f 73/115/93 74/116/94 54/96/50 53/95/51
f 74/116/94 75/117/95 55/97/49 54/96/50
f 75/117/95 76/118/96 56/98/48 55/97/49
f 76/118/96 77/119/97 57/99/47 56/98/48
f 77/119/97 78/120/98 58/100/46 57/99/47
f 78/120/98 79/121/99 59/101/45 58/100/46
f 79/121/99 80/122/100 60/102/44 59/101/45
f 80/122/100 81/123/101 61/103/41 60/102/44
f 81/123/101 82/124/102 62/104/42 61/103/41
f 82/124/102 63/105/83 43/85/61 62/104/42
f 1/1/103 20/20/104 64/106/84 63/105/83
f 20/20/104 19/19/105 65/107/85 64/106/84
f 19/19/105 18/18/106 66/108/86 65/107/85
f 18/18/106 17/17/107 67/109/87 66/108/86
f 17/17/107 16/16/108 68/110/88 67/109/87
f 16/16/108 15/15/109 69/111/89 68/110/88
f 15/15/109 14/14/110 70/112/90 69/111/89
f 14/14/110 13/13/111 71/113/91 70/112/90
f 13/13/111 12/12/112 72/114/92 71/113/91
f 12/12/112 11/11/113 73/115/93 72/114/92
f 11/11/113 10/10/114 74/116/94 73/115/93
f 10/10/114 9/9/115 75/117/95 74/116/94
f 9/9/115 8/8/116 76/118/96 75/117/95
f 8/8/116 7/7/117 77/119/97 76/118/96
f 7/7/117 6/6/118 78/120/98 77/119/97
f 6/6/118 5/5/119 79/121/99 78/120/98
f 5/5/119 4/4/120 80/122/100 79/121/99
f 4/4/120 3/3/121 81/123/101 80/122/100
f 3/3/121 2/2/122 82/124/102 81/123/101
f 2/2/122 1/1/103 63/105/83 82/124/102
s 4
f 123/165/123 124/166/124 84/126/125 83/125/126
f 124/166/124 125/167/127 85/127/128 84/126/125
f 125/167/127 126/168/129 86/128/130 85/127/128
f 126/168/129 127/169/131 87/129/132 86/128/130
f 127/169/131 128/170/133 88/130/134 87/129/132
f 128/170/133 129/171/135 89/131/136 88/130/134
f 129/171/135 130/172/137 90/132/138 89/131/136
f 130/172/137 131/173/139 91/133/140 90/132/138
f 131/173/139 132/174/141 92/134/142 91/133/140
f 132/174/141 133/175/143 93/135/144 92/134/142
f 133/175/143 134/176/145 94/136/146 93/135/144
f 134/176/145 135/177/147 95/137/148 94/136/146
f 135/177/147 136/178/149 96/138/150 95/137/148
f 136/178/149 137/179/151 97/139/152 96/138/150
f 137/179/151 138/180/153 98/140/154 97/139/152
f 138/180/153 139/181/155 99/141/156 98/140/154
f 139/181/155 140/182/157 100/142/158 99/141/156
f 140/182/157 141/183/159 101/143/160 100/142/158
f 141/183/159 142/184/161 102/144/162 101/143/160
f 142/184/161 123/165/123 83/125/126 102/144/162
s 3
f 83/125/163 84/126/164 104/146/63 103/145/82
f 84/126/164 85/127/165 105/147/64 104/146/63
f 85/127/165 86/128/166 106/148/65 105/147/64
f 86/128/166 87/129/167 107/149/66 106/148/65
f 87/129/167 88/130/168 108/150/67 107/149/66
f 88/130/168 89/131/169 109/151/68 108/150/67
f 89/131/169 90/132/170 110/152/69 109/151/68
f 90/132/170 91/133/171 111/153/70 110/152/69
f 91/133/171 92/134/172 112/154/71 111/153/70
f 92/134/172 93/135/173 113/155/72 112/154/71
f 93/135/173 94/136/174 114/156/73 113/155/72
f 94/136/174 95/137/175 115/157/74 114/156/73
f 95/137/175 96/138/176 116/158/75 115/157/74
f 96/138/176 97/139/177 117/159/76 116/158/75
f 97/139/177 98/140/178 118/160/77 117/159/76
f 98/140/178 99/141/179 119/161/78 118/160/77
f 99/141/179 100/142/180 120/162/79 119/161/78
f 100/142/180 101/143/181 121/163/80 120/162/79
f 101/143/181 102/144/182 122/164/81 121/163/80
f 102/144/182 83/125/163 103/145/82 122/164/81
s 4
f 21/81/183 22/80/184 124/166/124 123/165/123
f 22/80/184 23/79/185 125/167/127 124/166/124
f 23/79/185 24/78/186 126/168/129 125/167/127
f 24/78/186 25/77/187 127/169/131 126/168/129
f 25/77/187 26/76/188 128/170/133 127/169/131
f 26/76/188 27/75/189 129/171/135 128/170/133
f 27/75/189 28/74/190 130/172/137 129/171/135
f 28/74/190 29/73/191 131/173/139 130/172/137
f 29/73/191 30/72/192 132/174/141 131/173/139
f 30/72/192 31/71/193 133/175/143 132/174/141
f 31/71/193 32/70/194 134/176/145 133/175/143
f 32/70/194 33/69/195 135/177/147 134/176/145
f 33/69/195 34/68/196 136/178/149 135/177/147
f 34/68/196 35/67/197 137/179/151 136/178/149
f 35/67/197 36/66/198 138/180/153 137/179/151
f 36/66/198 37/65/199 139/181/155 138/180/153
f 37/65/199 38/64/200 140/182/157 139/181/155
f 38/64/200 39/63/201 141/183/159 140/182/157
f 39/63/201 40/82/202 142/184/161 141/183/159
f 40/82/202 21/81/183 123/165/123 142/184/161
